<svg xmlns="http://www.w3.org/2000/svg">
<!-- svgporn.com -->
<symbol id="facebook" viewBox="0 0 128 128" preserveAspectRatio="xMidYMid">
  <g><path d="M97.2308572,0.923059 L97.2308572,21.230756 L85.1538235,21.230756 C80.743549,21.230756 77.7691736,22.153815 76.2306974,23.999933 C74.6922212,25.84605 73.9229831,28.6152716 73.9229831,32.3075965 L73.9229831,46.8460755 L96.4615294,46.8460755 L93.4614873,69.6153529 L73.9229831,69.6153529 L73.9229831,128 L50.3845125,128 L50.3845125,69.6153529 L30.7691428,69.6153529 L30.7691428,46.8460755 L50.3845125,46.8460755 L50.3845125,30.0768823 C50.3845125,20.538384 53.0512016,13.140945 58.3845798,7.884567 C63.717958,2.628189 70.8205435,0 79.6923362,0 L80.4165827,0 L80.4165827,0 L81.8333781,0.0086446648 L81.8333781,0.0086446648 L83.2079101,0.0240129595 C83.4334769,0.0272146877 83.6572826,0.0307365888 83.8793274,0.0345786628 L85.1904643,0.0614731826 C85.4054652,0.0665959486 85.6187051,0.0720388875 85.830184,0.0778019995 L87.0779258,0.116222748 L87.0779258,0.116222748 L88.2834043,0.162327651 L88.2834043,0.162327651 L89.4466193,0.216116711 C89.6369665,0.2257219 89.8255528,0.235647263 90.0123781,0.245892799 L91.112198,0.311208096 C91.2919794,0.322734325 91.4699998,0.334580728 91.6462592,0.346747304 L92.682684,0.423588842 C92.8518995,0.437036111 93.0193541,0.450803554 93.1850477,0.464891171 L94.1580774,0.553258953 C94.6340264,0.599363885 95.0941267,0.648350379 95.5383781,0.700218436 L96.4057494,0.807796633 C96.5467893,0.82636668 96.6860682,0.845256901 96.8235862,0.864467295 L97.2308572,0.923059 Z"></path></g>
</symbol>
<symbol id="github" viewBox="0 0 128 128" preserveAspectRatio="xMidYMid">
  <g><path d="M63.9998542,1.56353599 C75.6110372,1.56353599 86.3194123,4.42479299 96.1249795,10.147017 C105.930547,15.86924 113.694442,23.633135 119.416665,33.4387023 C125.138888,43.2442695 128,53.9526446 128,65.5638276 C128,79.5083501 123.930559,92.0500494 115.791677,103.188926 C107.652794,114.327802 97.1388641,122.036134 84.2498861,126.313923 C82.7498405,126.591688 81.6387334,126.397243 80.9165649,125.730588 C80.2499477,125.115215 79.8909587,124.357812 79.8395976,123.458378 L79.833779,123.083646 L79.833779,123.083646 L79.898046,112.887986 L79.898046,112.887986 L79.9154245,107.370622 L79.9154245,107.370622 L79.9165831,105.647244 L79.9165831,105.647244 C79.9165831,100.2583 78.4721488,96.3138383 75.5832802,93.8138595 C78.7499134,93.4804837 81.5971222,92.9804685 84.1249066,92.313814 C86.6526909,91.6471595 89.263795,90.5638094 91.9582186,89.0637638 C94.6526423,87.5637183 96.9026621,85.7164912 98.7082779,83.5220827 C100.513894,81.3276742 101.986134,78.411 103.124998,74.77206 C104.263862,71.1331199 104.833294,66.9525535 104.833294,62.2303606 C104.833294,55.6192323 102.638837,49.8970091 98.2499225,45.0636909 C100.305497,40.0081222 100.083295,34.3414616 97.5833166,28.0637091 C96.027757,27.563694 93.7777373,27.869264 90.8332574,28.9804199 C87.8887775,30.0915755 85.3332361,31.3138079 83.1666332,32.6471169 L80,34.6470805 C74.833306,33.2026461 69.4999727,32.480429 64,32.480429 C58.5000273,32.480429 53.166694,33.2026461 48,34.6470805 C47.8383809,34.535964 47.6671199,34.4202564 47.486217,34.2999577 L46.9145826,33.925288 C46.8144892,33.8605474 46.7119854,33.7946591 46.6070711,33.727623 L45.9486596,33.3116329 L45.9486596,33.3116329 L44.852571,32.6359974 L44.852571,32.6359974 L44.4582824,32.3970121 C44.2374464,32.2636763 43.9975485,32.1262784 43.7385887,31.9848182 L43.1952531,31.6964816 L43.1952531,31.6964816 L42.6010857,31.3973125 C42.394558,31.295784 42.1795582,31.1924502 41.9560865,31.0873109 L41.2602556,30.7664767 C41.1400478,30.7121016 41.017722,30.6572752 40.8932782,30.6019974 L40.1211995,30.2649145 L40.1211995,30.2649145 L39.298289,29.916999 L39.298289,29.916999 L38.4245468,29.5582509 C38.1248274,29.4368628 37.816636,29.3136693 37.4999727,29.1886704 C34.3333394,27.938681 31.972243,27.563694 30.4166834,28.0637091 C27.9167046,34.3414616 27.6945027,40.0081222 29.7500775,45.0636909 C25.3611633,49.8970091 23.1667062,55.6192323 23.1667062,62.2303606 C23.1667062,66.9525535 23.7361382,71.1192171 24.8750023,74.7303515 C26.0138664,78.3414859 27.4722035,81.2581602 29.2500137,83.4803743 C31.0278239,85.7025884 33.2639408,87.5637183 35.9583645,89.0637638 C38.6527882,90.5638094 41.2638922,91.6471595 43.7916765,92.313814 C46.3194609,92.9804685 49.1666697,93.4804837 52.333303,93.8138595 C50.1666029,95.8138231 48.8054882,98.6749347 48.249959,102.397194 C47.0832893,102.952724 45.8332999,103.36937 44.5,103.647135 C43.1666819,103.9249 41.5833652,104.063782 39.750041,104.063782 C37.9167168,104.063782 36.0972468,103.466544 34.291631,102.272069 C32.4860152,101.077594 30.9443584,99.341492 29.6666606,97.0637638 C28.6111162,95.2859537 27.2639043,93.8415193 25.6250251,92.7304609 C23.9861458,91.6194024 22.6111283,90.9527479 21.4999727,90.7304973 L19.8332391,90.4805384 C18.6665694,90.4805384 17.8610326,90.6055179 17.4166287,90.8554768 C16.9722248,91.1054358 16.8333424,91.4248603 16.9999818,91.8137502 C17.1666211,92.2026401 17.4166287,92.59153 17.7500046,92.9804199 C18.0833804,93.3693098 18.4445133,93.702637 18.8334032,93.9804016 L19.4167381,94.3970486 C20.6389218,94.9525778 21.8472513,96.0081222 23.0417267,97.5636818 C24.236202,99.1192414 25.1112043,100.535919 25.6667335,101.813714 L26.5000273,103.730406 C27.2222931,105.841495 28.4445255,107.54984 30.1667244,108.85544 C31.8889233,110.161041 33.7500532,110.994383 35.7501139,111.355468 C37.7501747,111.716552 39.6807214,111.910997 41.541754,111.938803 C43.2477006,111.964291 44.6852827,111.884721 45.8545005,111.700093 L48.0834169,111.313759 L48.093844,114.740815 L48.093844,114.740815 L48.1668338,123.230415 L48.1668338,123.230415 C48.1668338,124.230446 47.8057009,125.063788 47.0834351,125.730443 C46.3611693,126.397097 45.2500623,126.591542 43.7501139,126.313777 C30.8612331,122.035989 20.347303,114.327656 12.2083235,103.18878 C4.06934393,92.0499036 0,79.5082042 0,65.5636818 C0,53.9524988 2.86111162,43.2441237 8.58333485,33.4385565 C14.3055581,23.632989 22.0694533,15.869094 31.8750205,10.146871 C41.4674232,4.54904414 51.9238079,1.68928429 63.2441747,1.56759238 L63.9998542,1.56353599 Z M24.2498132,93.4806295 C24.4164525,93.0917396 24.2220075,92.7584123 23.6664783,92.4806477 C23.1109491,92.3140084 22.7498162,92.3695711 22.5830796,92.6473357 C22.4164403,93.0362256 22.6108853,93.3695528 23.1664145,93.6473174 C23.6664297,93.9806933 24.0275626,93.9251307 24.2498132,93.4806295 Z M26.8331115,96.3138869 C27.2220014,96.0361223 27.1664388,95.5916697 26.6664236,94.9805292 C26.1108944,94.4805141 25.6664418,94.3971944 25.333066,94.7305703 C24.9441761,95.0083349 24.9997387,95.4527874 25.4997539,96.0639279 C26.0552831,96.6194571 26.4997357,96.7027768 26.8331115,96.3138869 Z M29.3331389,100.063855 C29.8331541,99.6749651 29.8331541,99.1471929 29.3331389,98.4805384 C28.888735,97.7582726 28.4165254,97.5915847 27.9165102,97.9804746 C27.416495,98.2582392 27.416495,98.7582544 27.9165102,99.4805201 C28.4165254,100.202786 28.888735,100.397231 29.3331389,100.063855 Z M32.833148,103.563864 C33.2497767,103.147235 33.1781472,102.657334 32.6182597,102.094159 L32.4997721,101.980547 C31.8331176,101.313893 31.2775398,101.230573 30.8330386,101.730588 C30.3330234,102.174992 30.4441487,102.702765 31.1664145,103.313905 C31.833069,103.98056 32.3886468,104.063879 32.833148,103.563864 Z M37.5830979,105.647244 C37.7497372,105.036104 37.3886043,104.591651 36.4996992,104.313887 C35.6664054,104.091636 35.1386332,104.286081 34.9163826,104.897222 C34.694132,105.508362 35.0552649,105.925009 35.9997812,106.147162 C36.7809942,106.459702 37.2936823,106.332733 37.5378456,105.766255 L37.5830979,105.647244 Z M42.8331115,106.063891 C42.8331115,105.341626 42.360902,105.036055 41.4164829,105.147181 C40.5275778,105.147181 40.0831252,105.452751 40.0831252,106.063891 C40.0831252,106.786157 40.5553348,107.091727 41.4997539,106.980602 C42.3293987,106.980602 42.7718758,106.714417 42.8271855,106.182045 L42.8331115,106.063891 Z M47.6664783,105.230598 C47.555353,104.619457 47.0553378,104.369449 46.1664327,104.480575 C45.2775276,104.647214 44.8886377,105.063861 44.999763,105.730516 C45.1108883,106.39717 45.6109035,106.619372 46.4998086,106.397121 C47.3294534,106.189688 47.7235293,105.837092 47.6820365,105.339336 L47.6664783,105.230598 Z"></path></g>
</symbol>
<symbol id="instagram" viewBox="0 0 256 256" preserveAspectRatio="xMidYMid">
    <g><path d="M127.999746,23.06353 C162.177385,23.06353 166.225393,23.1936027 179.722476,23.8094161 C192.20235,24.3789926 198.979853,26.4642218 203.490736,28.2166477 C209.464938,30.5386501 213.729395,33.3128586 218.208268,37.7917319 C222.687141,42.2706052 225.46135,46.5350617 227.782844,52.5092638 C229.535778,57.0201472 231.621007,63.7976504 232.190584,76.277016 C232.806397,89.7746075 232.93647,93.8226147 232.93647,128.000254 C232.93647,162.177893 232.806397,166.225901 232.190584,179.722984 C231.621007,192.202858 229.535778,198.980361 227.782844,203.491244 C225.46135,209.465446 222.687141,213.729903 218.208268,218.208776 C213.729395,222.687649 209.464938,225.461858 203.490736,227.783352 C198.979853,229.536286 192.20235,231.621516 179.722476,232.191092 C166.227425,232.806905 162.179418,232.936978 127.999746,232.936978 C93.8200742,232.936978 89.772067,232.806905 76.277016,232.191092 C63.7971424,231.621516 57.0196391,229.536286 52.5092638,227.783352 C46.5345536,225.461858 42.2700971,222.687649 37.7912238,218.208776 C33.3123505,213.729903 30.538142,209.465446 28.2166477,203.491244 C26.4637138,198.980361 24.3784845,192.202858 23.808908,179.723492 C23.1930946,166.225901 23.0630219,162.177893 23.0630219,128.000254 C23.0630219,93.8226147 23.1930946,89.7746075 23.808908,76.2775241 C24.3784845,63.7976504 26.4637138,57.0201472 28.2166477,52.5092638 C30.538142,46.5350617 33.3123505,42.2706052 37.7912238,37.7917319 C42.2700971,33.3128586 46.5345536,30.5386501 52.5092638,28.2166477 C57.0196391,26.4642218 63.7971424,24.3789926 76.2765079,23.8094161 C89.7740994,23.1936027 93.8221066,23.06353 127.999746,23.06353 M127.999746,0 C93.2367791,0 88.8783247,0.147348072 75.2257637,0.770274749 C61.601148,1.39218523 52.2968794,3.55566141 44.1546281,6.72008828 C35.7374966,9.99121548 28.5992446,14.3679613 21.4833489,21.483857 C14.3674532,28.5997527 9.99070739,35.7380046 6.71958019,44.1551362 C3.55515331,52.2973875 1.39167714,61.6016561 0.769766653,75.2262718 C0.146839975,88.8783247 0,93.2372872 0,128.000254 C0,162.763221 0.146839975,167.122183 0.769766653,180.774236 C1.39167714,194.398852 3.55515331,203.703121 6.71958019,211.845372 C9.99070739,220.261995 14.3674532,227.400755 21.4833489,234.516651 C28.5992446,241.632547 35.7374966,246.009293 44.1546281,249.28042 C52.2968794,252.444847 61.601148,254.608323 75.2257637,255.230233 C88.8783247,255.85316 93.2367791,256 127.999746,256 C162.762713,256 167.121675,255.85316 180.773728,255.230233 C194.398344,254.608323 203.702613,252.444847 211.844864,249.28042 C220.261995,246.009293 227.400247,241.632547 234.516143,234.516651 C241.632039,227.400755 246.008785,220.262503 249.279912,211.845372 C252.444339,203.703121 254.607815,194.398852 255.229725,180.774236 C255.852652,167.122183 256,162.763221 256,128.000254 C256,93.2372872 255.852652,88.8783247 255.229725,75.2262718 C254.607815,61.6016561 252.444339,52.2973875 249.279912,44.1551362 C246.008785,35.7380046 241.632039,28.5997527 234.516143,21.483857 C227.400247,14.3679613 220.261995,9.99121548 211.844864,6.72008828 C203.702613,3.55566141 194.398344,1.39218523 180.773728,0.770274749 C167.121675,0.147348072 162.762713,0 127.999746,0 Z M127.999746,62.2703115 C91.698262,62.2703115 62.2698034,91.69877 62.2698034,128.000254 C62.2698034,164.301738 91.698262,193.730197 127.999746,193.730197 C164.30123,193.730197 193.729689,164.301738 193.729689,128.000254 C193.729689,91.69877 164.30123,62.2703115 127.999746,62.2703115 Z M127.999746,170.667175 C104.435741,170.667175 85.3328252,151.564259 85.3328252,128.000254 C85.3328252,104.436249 104.435741,85.3333333 127.999746,85.3333333 C151.563751,85.3333333 170.666667,104.436249 170.666667,128.000254 C170.666667,151.564259 151.563751,170.667175 127.999746,170.667175 Z M211.686338,59.6734287 C211.686338,68.1566129 204.809755,75.0337031 196.326571,75.0337031 C187.843387,75.0337031 180.966297,68.1566129 180.966297,59.6734287 C180.966297,51.1902445 187.843387,44.3136624 196.326571,44.3136624 C204.809755,44.3136624 211.686338,51.1902445 211.686338,59.6734287 Z"></path></g>
</symbol>
<symbol id="twitter" viewBox="0 0 128 128" preserveAspectRatio="xMidYMid">
  <g><path d="M128,24.3652431 C124.372226,29.6715007 119.986462,34.1926688 114.842709,37.9287476 L114.86576,38.3055233 L114.86576,38.3055233 L114.893132,38.9716088 L114.893132,38.9716088 L114.916183,40.0481107 L114.916183,40.0481107 L114.923386,40.996778 L114.923386,40.996778 L114.923866,41.339913 C114.923866,48.3788527 113.895116,55.4042424 111.837614,62.4160823 C109.780113,69.4279222 106.653212,76.1554983 102.45691,82.5988106 C98.2606077,89.042123 93.2656667,94.7409484 87.4720866,99.6952871 C81.6785065,104.649626 74.6937191,108.602266 66.5177243,111.553208 C58.3417295,114.504151 49.5972545,115.979622 40.2842993,115.979622 C25.6108873,115.979622 12.1827875,112.054081 0,104.203 C1.89509186,104.419609 4.00674534,104.527914 6.33496045,104.527914 C18.5176532,104.527914 29.3738291,100.791882 38.903488,93.3198191 C33.2182124,93.2115146 28.1285168,91.4653295 23.6344012,88.081264 C19.1402857,84.6971985 16.0539864,80.3790895 14.3755036,75.1269372 C16.1622909,75.3976511 17.8137214,75.533008 19.3297948,75.533008 C21.6580099,75.533008 23.9591726,75.2351943 26.2332828,74.639567 C20.1689889,73.3942073 15.1469955,70.3756103 11.1673026,65.5837757 C7.18760965,60.7919412 5.1977632,55.2284727 5.1977632,48.8933701 L5.1977632,48.5684566 C8.87964242,50.6259578 12.8322829,51.7359605 17.0556846,51.8984646 C13.4821099,49.5160499 10.6394721,46.4026982 8.52777124,42.5584096 C6.41607038,38.7141211 5.36021995,34.544919 5.36021995,30.0508034 C5.36021995,25.2859741 6.55142732,20.8731101 8.93384205,16.8122131 C15.4854589,24.8799031 23.4583946,31.3367653 32.8526492,36.1827995 C42.2469038,41.0288336 52.3044406,43.7225646 63.0252595,44.2639923 C62.5921363,42.2064911 62.3755746,40.2030947 62.3755746,38.2538032 C62.3755746,30.9983493 64.9339486,24.8122481 70.0506967,19.6955001 C75.1674447,14.5787521 81.3535457,12.0203781 88.6089996,12.0203781 C96.1893671,12.0203781 102.578527,14.7818111 107.77648,20.3046771 C113.678364,19.1676221 119.228283,17.0559691 124.426236,13.9697171 C122.422839,20.1964201 118.578503,25.0153551 112.893228,28.4265201 C117.663742,27.9135883 122.434258,26.6717122 127.204893,24.70089 L128,24.3652431 Z"></path></g>
</symbol>
</svg>
